# xmcd
#
# Track frame offsets:
#	150
#	9438
#	19329
#	29630
#	39243
#	50240
#	60558
#	71584
#	81562
#	90764
#	101832
#	111736
#	123857
#	135668
#	144861
#	155246
#	167060
#	178575
#	190357
#	200028
#	212271
#	220361
#	233034
#	244056
#	254685
#	264543
#	275215
#	281913
#	292327
#	300673
#	312071
#	322821
#
# Disc length: 4422 seconds
#
# Revision: 1
# Processed by: cddbd v1.5.1PL2 Copyright (c) Steve Scherf et al.
# Submitted via: audiograbber 1.83.01
#
DISCID=f0114420
DTITLE=Various Artist - Rockin Hillbilly
DYEAR=9999
DGENRE=Country
TTITLE0=Billy Strange - Diesel Smoke Dangerous Curbes
TTITLE1=Bobby Rutledge - Waitin' In LIne
TTITLE2=Gene DAvis - Satan's Daugther
TTITLE3=Joe Lewis - I Wonder If I Can Loose The Blues This Way
TTITLE4=Jack Rhodes/Freddie Franks - Gypsy Heart
TTITLE5=Tibby Edwards - Shift Gears
TTITLE6=Billy Wallace - You Can't Ride On My Train
TTITLE7=Terry Fell - Get Aboard My Wagon
TTITLE8=Riley Crabtree - Tattle Tattle Tale
TTITLE9=Bud Hobbs - Mean, Mean, Mean
TTITLE10=Billy Barton - Do You Love Me?
TTITLE11=Jimmie Skinner - Just Ramblin' On
TTITLE12=Billy Wallace - Southwind
TTITLE13=Ed Camp - I'm Gonna Put The Wammy On You
TTITLE14=Bobby Boro - Stamps
TTITLE15=Tiny Murphy - 42
TTITLE16=Hank The Drifter - Don't You Lock Your Daddy Out
TTITLE17=Tibby Edwards - Flip, Flop and Fly
TTITLE18=Wiley Barkdull - Cause You're Always On My Mind
TTITLE19=Bob Newman - Greetings
TTITLE20=Jimmie Patton - Hut-Harp (Rookie Marching Song)
TTITLE21=Tani Allen - I'm Back In The Army
TTITLE22=Van Howard - I'm Not A Kid Anymore
TTITLE23=Bobby Ruthledge - Southern Fried Chicken
TTITLE24=Billy Barton - I'm Turning Over A Brand New Leaf
TTITLE25=Tommy Spurlin - There Might've Been A Love Song
TTITLE26=Cal Maddox - Hey Bill
TTITLE27=Cliff Shephard - Railroad Crossing
TTITLE28=George and Earl - Don't, Don't, Don't
TTITLE29=Loius Innis - Whammy Bammy Buzzard Goozer
TTITLE30=Jacoby Brothers - Cannonball
TTITLE31=Cowboy Huff - No Two Timin' Me
EXTD=Part one of The Rockin' Hillbill CD Series \nLabel Cactus \nCACT CD 5000
EXTT0=
EXTT1=
EXTT2=
EXTT3=
EXTT4=
EXTT5=
EXTT6=
EXTT7=
EXTT8=
EXTT9=
EXTT10=
EXTT11=
EXTT12=
EXTT13=
EXTT14=
EXTT15=
EXTT16=
EXTT17=
EXTT18=
EXTT19=
EXTT20=
EXTT21=
EXTT22=
EXTT23=
EXTT24=
EXTT25=
EXTT26=
EXTT27=
EXTT28=
EXTT29=
EXTT30=
EXTT31=
PLAYORDER=
